<svg width="104" height="94" viewBox="0 0 104 94" fill="none" xmlns="http://www.w3.org/2000/svg">
<g id="Logo">
<path id="u k u" d="M30.862 9.348C30.862 8.466 30.88 8.088 30.916 7.782C30.898 7.71 30.844 7.674 30.736 7.656C30.34 7.8 29.638 7.962 28.81 7.98C28.684 8.034 28.666 8.286 28.774 8.376L28.99 8.466C29.53 8.7 29.53 8.862 29.53 9.996V13.002C29.53 14.46 30.124 15.252 31.708 15.252C32.77 15.252 33.652 14.658 34.192 14.316C34.3 14.316 34.354 14.406 34.354 14.568V15.306C34.39 15.378 34.48 15.432 34.57 15.432C35.182 15.09 36.226 14.91 36.928 14.766C37.072 14.694 37.054 14.334 36.946 14.244C36.694 14.298 36.46 14.334 36.244 14.334C35.74 14.334 35.686 13.794 35.686 12.372V9.348C35.686 8.682 35.704 8.124 35.74 7.782C35.722 7.71 35.668 7.674 35.578 7.656C35.182 7.836 34.192 7.962 33.472 7.98C33.328 8.052 33.328 8.304 33.454 8.376L33.688 8.466C34.228 8.682 34.354 8.718 34.354 9.888V12.84C34.354 13.398 34.228 13.668 33.994 13.884C33.598 14.226 33.022 14.424 32.536 14.424C31.168 14.424 30.862 13.596 30.862 12.354V9.348ZM43.2949 12.984C43.2949 14.28 43.2769 14.46 42.6109 14.55L42.2149 14.604C42.0709 14.694 42.1069 15 42.2329 15.054C42.7729 15.018 43.3129 15 43.9609 15C44.5909 15 45.1129 15.018 45.7069 15.054C45.8329 15 45.8689 14.694 45.7429 14.604L45.3109 14.55C44.6629 14.46 44.6269 14.28 44.6269 12.984V11.994C44.6269 11.436 44.6449 11.382 44.9689 11.382C45.1669 11.382 45.3649 11.454 45.5269 11.634L47.4529 13.866C47.6869 14.136 47.7589 14.262 47.7589 14.37C47.7589 14.478 47.5789 14.514 47.3089 14.55L46.9849 14.604C46.8589 14.676 46.8769 14.982 47.0209 15.054C47.5429 15.018 48.1729 15 48.8929 15C49.4689 15 50.0809 15.018 50.6029 15.054C50.7469 15 50.7649 14.694 50.6389 14.604L50.3869 14.568C50.0629 14.514 49.7029 14.406 49.4509 14.172C49.0909 13.83 48.4609 13.128 47.7589 12.336C47.1469 11.652 46.8589 11.31 46.5529 10.896C46.4449 10.752 46.4629 10.662 46.6789 10.464C47.0029 10.158 47.6149 9.51 48.3169 8.952C48.7849 8.574 49.0909 8.394 49.4509 8.322L50.0269 8.214C50.1349 8.124 50.1169 7.818 49.9909 7.764C48.9829 7.872 47.9209 7.908 47.1289 7.908H46.7149C46.5529 7.962 46.5529 8.304 46.7149 8.358L47.1469 8.412C47.4529 8.448 47.5429 8.502 47.5429 8.592C47.5429 8.682 47.4169 8.88 46.9129 9.42L46.1749 10.212C45.6889 10.716 45.3469 10.914 44.9509 10.914C44.6449 10.914 44.6269 10.878 44.6269 10.644V4.47C44.6269 3.678 44.6629 2.778 44.6809 2.238C44.6449 2.166 44.5729 2.13 44.5009 2.13C43.8529 2.472 43.0069 2.742 42.5569 2.886C42.4669 2.94 42.4669 3.192 42.5569 3.246L42.7369 3.354C43.2769 3.678 43.2949 3.786 43.2949 4.848V12.984ZM57.7565 9.348C57.7565 8.466 57.7745 8.088 57.8105 7.782C57.7925 7.71 57.7385 7.674 57.6305 7.656C57.2345 7.8 56.5325 7.962 55.7045 7.98C55.5785 8.034 55.5605 8.286 55.6685 8.376L55.8845 8.466C56.4245 8.7 56.4245 8.862 56.4245 9.996V13.002C56.4245 14.46 57.0185 15.252 58.6025 15.252C59.6645 15.252 60.5465 14.658 61.0865 14.316C61.1945 14.316 61.2485 14.406 61.2485 14.568V15.306C61.2845 15.378 61.3745 15.432 61.4645 15.432C62.0765 15.09 63.1205 14.91 63.8225 14.766C63.9665 14.694 63.9485 14.334 63.8405 14.244C63.5885 14.298 63.3545 14.334 63.1385 14.334C62.6345 14.334 62.5805 13.794 62.5805 12.372V9.348C62.5805 8.682 62.5985 8.124 62.6345 7.782C62.6165 7.71 62.5625 7.674 62.4725 7.656C62.0765 7.836 61.0865 7.962 60.3665 7.98C60.2225 8.052 60.2225 8.304 60.3485 8.376L60.5825 8.466C61.1225 8.682 61.2485 8.718 61.2485 9.888V12.84C61.2485 13.398 61.1225 13.668 60.8885 13.884C60.4925 14.226 59.9165 14.424 59.4305 14.424C58.0625 14.424 57.7565 13.596 57.7565 12.354V9.348Z" fill="white"/>
<path id="l e" d="M71.916 19.47C71.916 18.678 71.952 17.778 71.97 17.238C71.934 17.166 71.862 17.13 71.79 17.13C71.142 17.472 70.296 17.742 69.846 17.886C69.756 17.94 69.756 18.192 69.846 18.246L70.026 18.354C70.566 18.678 70.584 18.786 70.584 19.848V27.984C70.584 29.28 70.566 29.46 69.9 29.55L69.486 29.604C69.36 29.694 69.396 30 69.522 30.054C70.062 30.018 70.602 30 71.25 30C71.88 30 72.402 30.018 72.996 30.054C73.122 30 73.158 29.694 73.032 29.604L72.6 29.55C71.952 29.46 71.916 29.28 71.916 27.984V19.47ZM83.6173 25.392C84.3733 25.392 84.6253 25.374 84.6793 25.266C84.7153 25.194 84.7513 25.05 84.7513 24.798C84.7513 23.718 83.7433 22.656 82.1953 22.656C80.0353 22.656 78.5773 24.51 78.5773 26.724C78.5773 27.516 78.7933 28.362 79.3333 29.064C79.8553 29.748 80.7733 30.252 81.9433 30.252C82.8793 30.252 84.1753 29.802 84.7693 28.578C84.7513 28.416 84.6253 28.308 84.4453 28.362C83.8873 29.064 83.3833 29.244 82.7893 29.244C80.8633 29.244 79.8013 27.696 79.8013 25.878C79.8013 25.428 79.8193 25.392 80.2873 25.392H83.6173ZM80.1253 24.852C79.9993 24.852 79.9993 24.798 79.9993 24.762C80.0173 24.168 80.9353 23.196 81.9973 23.196C83.0413 23.196 83.3833 23.826 83.3833 24.33C83.3833 24.564 83.3293 24.636 83.2753 24.672C83.1313 24.78 82.7353 24.852 81.4033 24.852H80.1253Z" fill="white"/>
<path id="l e / t" d="M4.916 31.47C4.916 30.678 4.952 29.778 4.97 29.238C4.934 29.166 4.862 29.13 4.79 29.13C4.142 29.472 3.296 29.742 2.846 29.886C2.756 29.94 2.756 30.192 2.846 30.246L3.026 30.354C3.566 30.678 3.584 30.786 3.584 31.848V39.984C3.584 41.28 3.566 41.46 2.9 41.55L2.486 41.604C2.36 41.694 2.396 42 2.522 42.054C3.062 42.018 3.602 42 4.25 42C4.88 42 5.402 42.018 5.996 42.054C6.122 42 6.158 41.694 6.032 41.604L5.6 41.55C4.952 41.46 4.916 41.28 4.916 39.984V31.47ZM16.6173 37.392C17.3733 37.392 17.6253 37.374 17.6793 37.266C17.7153 37.194 17.7513 37.05 17.7513 36.798C17.7513 35.718 16.7433 34.656 15.1953 34.656C13.0353 34.656 11.5773 36.51 11.5773 38.724C11.5773 39.516 11.7933 40.362 12.3333 41.064C12.8553 41.748 13.7733 42.252 14.9433 42.252C15.8793 42.252 17.1753 41.802 17.7693 40.578C17.7513 40.416 17.6253 40.308 17.4453 40.362C16.8873 41.064 16.3833 41.244 15.7893 41.244C13.8633 41.244 12.8013 39.696 12.8013 37.878C12.8013 37.428 12.8193 37.392 13.2873 37.392H16.6173ZM13.1253 36.852C12.9993 36.852 12.9993 36.798 12.9993 36.762C13.0173 36.168 13.9353 35.196 14.9973 35.196C16.0413 35.196 16.3833 35.826 16.3833 36.33C16.3833 36.564 16.3293 36.636 16.2753 36.672C16.1313 36.78 15.7353 36.852 14.4033 36.852H13.1253ZM50.43 29.652H49.386L45.624 42.288H46.668L50.43 29.652ZM65.2467 35.664C65.4087 35.556 65.4447 35.07 65.2287 34.908H63.2307C62.9247 34.908 62.9067 34.89 62.9067 34.566V33.756C62.8347 33.63 62.6187 33.63 62.5287 33.666C62.3487 34.026 62.0067 34.512 61.7727 34.728C61.5927 34.89 61.1427 35.124 60.6207 35.286C60.5487 35.394 60.5667 35.592 60.6747 35.664H61.1787C61.5387 35.664 61.5567 35.7 61.5567 36.186V40.308C61.5567 41.388 61.8807 42.252 63.4287 42.252C64.3467 42.252 64.9947 41.802 65.3187 41.424C65.3547 41.316 65.2827 41.118 65.1387 41.118C65.0847 41.118 64.8507 41.316 64.6887 41.37C64.5447 41.424 64.3827 41.46 64.2027 41.46C63.0147 41.46 62.8887 40.506 62.8887 39.462V36.096C62.8887 35.718 62.9067 35.664 63.2127 35.664H65.2467Z" fill="white"/>
<path id="y p e" d="M62.224 61.482C62.638 61.482 63.07 61.32 63.376 60.636C64.258 58.674 65.734 55.542 66.328 54.336L67.336 52.266C67.948 50.988 68.272 50.466 68.866 50.358L69.172 50.304C69.298 50.196 69.28 49.926 69.136 49.854C68.632 49.89 68.218 49.908 67.768 49.908C67.3 49.908 66.76 49.89 66.184 49.854C66.04 49.908 66.022 50.214 66.148 50.304L66.706 50.394C67.03 50.448 67.138 50.574 67.138 50.7C67.138 50.898 66.904 51.564 66.508 52.5L65.896 53.922C65.572 54.66 65.284 55.218 65.23 55.254C65.158 55.218 64.816 54.264 64.708 53.976L64.132 52.32C64.024 52.014 63.61 50.844 63.61 50.628C63.61 50.502 63.754 50.448 64.006 50.394L64.456 50.304C64.582 50.214 64.564 49.908 64.42 49.854C63.844 49.89 63.34 49.908 62.854 49.908C62.26 49.908 61.72 49.89 61.144 49.854C61 49.908 60.982 50.214 61.09 50.304L61.54 50.394C62.17 50.52 62.296 50.952 62.602 51.798L64.006 55.65C64.24 56.316 64.312 56.532 64.312 56.892C64.312 57.144 64.186 57.522 64.132 57.666C63.97 58.098 63.61 58.854 63.088 59.664C62.962 59.862 62.782 59.988 62.494 59.988H62.152C61.756 59.988 61.432 60.222 61.432 60.708C61.432 61.158 61.702 61.482 62.224 61.482ZM74.9226 59.574C74.9226 60.87 74.9046 61.05 74.2386 61.14L73.8606 61.194C73.7346 61.284 73.7706 61.59 73.8966 61.644C74.4006 61.608 74.9406 61.59 75.5886 61.59C76.2186 61.59 76.7406 61.608 77.6046 61.644C77.7306 61.59 77.7666 61.284 77.6406 61.194L76.9386 61.104C76.2906 61.014 76.2546 60.852 76.2546 59.574V57.684C76.2546 57.306 76.3446 57.216 76.5066 57.18C76.6686 57.216 77.1726 57.252 77.4966 57.252C80.0526 57.252 81.8886 55.452 81.8886 52.95C81.8886 51.132 80.7186 49.656 78.9006 49.656C77.7486 49.656 76.6146 50.394 76.3806 50.502C76.2546 50.502 76.2186 50.394 76.2186 50.268C76.2186 50.034 76.2546 49.764 76.2906 49.44C76.2546 49.35 76.1826 49.314 76.0746 49.314C75.6066 49.656 74.7606 50.088 74.2926 50.286C74.2026 50.34 74.2026 50.538 74.2746 50.61L74.4366 50.718C74.9226 51.042 74.9226 51.132 74.9226 51.834V59.574ZM76.2546 52.086C76.2546 51.492 76.3086 51.222 76.4706 51.024C76.6686 50.808 77.2266 50.52 78.0006 50.52C79.6206 50.52 80.4306 51.978 80.4306 53.418C80.4306 55.29 79.5666 56.658 78.0906 56.658C77.7126 56.658 77.1546 56.532 76.7946 56.262C76.4346 55.974 76.2546 55.758 76.2546 55.182V52.086ZM101.686 52.392C102.442 52.392 102.694 52.374 102.748 52.266C102.784 52.194 102.82 52.05 102.82 51.798C102.82 50.718 101.812 49.656 100.264 49.656C98.1036 49.656 96.6456 51.51 96.6456 53.724C96.6456 54.516 96.8616 55.362 97.4016 56.064C97.9236 56.748 98.8416 57.252 100.012 57.252C100.948 57.252 102.244 56.802 102.838 55.578C102.82 55.416 102.694 55.308 102.514 55.362C101.956 56.064 101.452 56.244 100.858 56.244C98.9316 56.244 97.8696 54.696 97.8696 52.878C97.8696 52.428 97.8876 52.392 98.3556 52.392H101.686ZM98.1936 51.852C98.0676 51.852 98.0676 51.798 98.0676 51.762C98.0856 51.168 99.0036 50.196 100.066 50.196C101.11 50.196 101.452 50.826 101.452 51.33C101.452 51.564 101.398 51.636 101.344 51.672C101.2 51.78 100.804 51.852 99.4716 51.852H98.1936Z" fill="white"/>
<path id="w" d="M14.006 74.722C14.15 75.1 14.438 75.838 14.546 76.216C14.6 76.27 14.69 76.288 14.762 76.288C14.852 76.288 14.924 76.27 14.978 76.216C15.122 75.802 15.374 75.154 15.698 74.38L16.634 72.13C16.76 71.806 17.012 71.248 17.03 71.248C17.048 71.248 17.318 71.842 17.444 72.166L18.308 74.236C18.614 74.956 18.938 75.892 19.046 76.216C19.1 76.27 19.172 76.288 19.244 76.288C19.334 76.288 19.406 76.27 19.478 76.216C19.622 75.748 19.838 75.226 20.09 74.578C20.432 73.66 21.296 71.5 21.782 70.492C22.16 69.7 22.322 69.448 22.754 69.358L23.114 69.286C23.222 69.196 23.204 68.926 23.06 68.854C22.664 68.89 22.232 68.908 21.89 68.908C21.44 68.908 20.99 68.89 20.468 68.854C20.342 68.908 20.306 69.196 20.45 69.286L20.9 69.358C21.116 69.394 21.224 69.484 21.224 69.592C21.224 69.718 21.188 69.952 21.044 70.366C20.774 71.122 20.054 73.03 19.82 73.552C19.694 73.84 19.604 74.02 19.568 74.056C19.514 74.02 19.442 73.822 19.334 73.552C19.136 73.066 18.164 70.78 17.966 70.186C17.75 69.556 17.714 69.502 18.434 69.358L18.812 69.286C18.92 69.196 18.92 68.908 18.758 68.854C18.146 68.89 17.606 68.908 17.048 68.908C16.58 68.908 16.004 68.89 15.554 68.854C15.41 68.908 15.374 69.178 15.5 69.286L15.788 69.358C16.184 69.448 16.454 69.592 16.616 69.988C16.706 70.222 16.688 70.456 16.454 71.032L15.572 73.21C15.356 73.732 15.212 74.038 15.158 74.074C15.158 74.038 14.996 73.714 14.834 73.3L13.718 70.546C13.52 70.06 13.43 69.718 13.43 69.61C13.43 69.502 13.574 69.394 13.826 69.358L14.24 69.286C14.366 69.196 14.348 68.926 14.204 68.854C13.718 68.89 13.196 68.908 12.638 68.908C12.098 68.908 11.594 68.89 11.036 68.854C10.874 68.926 10.892 69.196 10.982 69.286L11.27 69.358C11.72 69.466 11.936 69.646 12.35 70.654L14.006 74.722Z" fill="white"/>
<path id="r i t e r" d="M24.764 84.984C24.764 86.28 24.746 86.442 24.08 86.55L23.738 86.604C23.612 86.694 23.648 87 23.774 87.054C24.242 87.018 24.782 87 25.43 87C26.06 87 26.582 87.018 27.428 87.054C27.554 87 27.59 86.694 27.464 86.604L26.816 86.55C26.132 86.496 26.096 86.28 26.096 84.984V82.536C26.096 81.924 26.15 81.402 26.33 81.15C26.474 80.952 26.69 80.79 26.978 80.79C27.23 80.79 27.5 80.898 27.77 81.078C27.896 81.15 27.986 81.204 28.166 81.204C28.454 81.204 28.94 80.97 28.94 80.376C28.94 79.944 28.58 79.656 28.13 79.656C27.464 79.656 26.78 80.214 26.15 80.736C26.114 80.718 26.096 80.664 26.096 80.574V79.53C26.096 79.458 26.042 79.422 25.952 79.404C25.502 79.674 24.548 80.142 24.134 80.286C24.044 80.34 24.044 80.538 24.116 80.61L24.278 80.718C24.764 81.042 24.764 81.132 24.764 81.834V84.984ZM35.2406 84.984C35.2406 86.28 35.2226 86.46 34.5566 86.55L34.1786 86.604C34.0526 86.694 34.0886 87 34.2146 87.054C34.7186 87.018 35.2586 87 35.9066 87C36.5366 87 37.0586 87.018 37.5986 87.054C37.7246 87 37.7606 86.694 37.6346 86.604L37.2566 86.55C36.6086 86.46 36.5726 86.28 36.5726 84.984V81.744C36.5726 81.006 36.6086 80.142 36.6446 79.512C36.6266 79.44 36.5546 79.404 36.4646 79.404C36.0506 79.674 35.0246 80.142 34.6106 80.286C34.5206 80.34 34.5206 80.538 34.5926 80.61L34.7546 80.718C35.2406 81.042 35.2406 81.132 35.2406 81.834V84.984ZM35.8346 75.768C35.2946 75.768 34.8626 76.146 34.8626 76.74C34.8626 77.226 35.2226 77.64 35.7806 77.64C36.2846 77.64 36.7346 77.352 36.7346 76.704C36.7346 76.2 36.3746 75.768 35.8346 75.768ZM47.8736 80.664C48.0356 80.556 48.0716 80.07 47.8556 79.908H45.8576C45.5516 79.908 45.5336 79.89 45.5336 79.566V78.756C45.4616 78.63 45.2456 78.63 45.1556 78.666C44.9756 79.026 44.6336 79.512 44.3996 79.728C44.2196 79.89 43.7696 80.124 43.2476 80.286C43.1756 80.394 43.1936 80.592 43.3016 80.664H43.8056C44.1656 80.664 44.1836 80.7 44.1836 81.186V85.308C44.1836 86.388 44.5076 87.252 46.0556 87.252C46.9736 87.252 47.6216 86.802 47.9456 86.424C47.9816 86.316 47.9096 86.118 47.7656 86.118C47.7116 86.118 47.4776 86.316 47.3156 86.37C47.1716 86.424 47.0096 86.46 46.8296 86.46C45.6416 86.46 45.5156 85.506 45.5156 84.462V81.096C45.5156 80.718 45.5336 80.664 45.8396 80.664H47.8736ZM58.2891 82.392C59.0451 82.392 59.2971 82.374 59.3511 82.266C59.3871 82.194 59.4231 82.05 59.4231 81.798C59.4231 80.718 58.4151 79.656 56.8671 79.656C54.7071 79.656 53.2491 81.51 53.2491 83.724C53.2491 84.516 53.4651 85.362 54.0051 86.064C54.5271 86.748 55.4451 87.252 56.6151 87.252C57.5511 87.252 58.8471 86.802 59.4411 85.578C59.4231 85.416 59.2971 85.308 59.1171 85.362C58.5591 86.064 58.0551 86.244 57.4611 86.244C55.5351 86.244 54.4731 84.696 54.4731 82.878C54.4731 82.428 54.4911 82.392 54.9591 82.392H58.2891ZM54.7971 81.852C54.6711 81.852 54.6711 81.798 54.6711 81.762C54.6891 81.168 55.6071 80.196 56.6691 80.196C57.7131 80.196 58.0551 80.826 58.0551 81.33C58.0551 81.564 58.0011 81.636 57.9471 81.672C57.8031 81.78 57.4071 81.852 56.0751 81.852H54.7971ZM66.0199 84.984C66.0199 86.28 66.0019 86.442 65.3359 86.55L64.9939 86.604C64.8679 86.694 64.9039 87 65.0299 87.054C65.4979 87.018 66.0379 87 66.6859 87C67.3159 87 67.8379 87.018 68.6839 87.054C68.8099 87 68.8459 86.694 68.7199 86.604L68.0719 86.55C67.3879 86.496 67.3519 86.28 67.3519 84.984V82.536C67.3519 81.924 67.4059 81.402 67.5859 81.15C67.7299 80.952 67.9459 80.79 68.2339 80.79C68.4859 80.79 68.7559 80.898 69.0259 81.078C69.1519 81.15 69.2419 81.204 69.4219 81.204C69.7099 81.204 70.1959 80.97 70.1959 80.376C70.1959 79.944 69.8359 79.656 69.3859 79.656C68.7199 79.656 68.0359 80.214 67.4059 80.736C67.3699 80.718 67.3519 80.664 67.3519 80.574V79.53C67.3519 79.458 67.2979 79.422 67.2079 79.404C66.7579 79.674 65.8039 80.142 65.3899 80.286C65.2999 80.34 65.2999 80.538 65.3719 80.61L65.5339 80.718C66.0199 81.042 66.0199 81.132 66.0199 81.834V84.984Z" fill="white"/>
<path id="Ellipse 1" d="M100.5 34C100.5 43.172 94.9783 51.5347 85.9296 57.6269C76.884 63.717 64.3592 67.5 50.5 67.5C36.6408 67.5 24.116 63.717 15.0703 57.6269C6.02168 51.5347 0.5 43.172 0.5 34C0.5 24.828 6.02168 16.4653 15.0703 10.3731C24.116 4.28301 36.6408 0.5 50.5 0.5C64.3592 0.5 76.884 4.28301 85.9296 10.3731C94.9783 16.4653 100.5 24.828 100.5 34Z" stroke="#FF0000"/>
</g>
</svg>
