<svg width="472" height="12" viewBox="0 0 472 12" fill="none" xmlns="http://www.w3.org/2000/svg">
<path d="M5.368 8.72C5.368 10.136 5.272 10.28 4.24 10.4L3.64 10.472C3.472 10.592 3.496 11 3.688 11.072C4.768 11.024 5.512 11 6.28 11C7.024 11 7.816 11.024 8.872 11.072C9.064 11 9.088 10.592 8.92 10.472L8.32 10.4C7.288 10.28 7.192 10.136 7.192 8.72V7.424C7.192 6.728 7.24 6.488 8.104 5.12L9.592 2.72C10.336 1.52 10.456 1.376 11.2 1.232L11.776 1.112C11.968 0.991999 11.92 0.584 11.728 0.512C11.056 0.559999 10.552 0.584 10.024 0.584C9.472 0.584 8.92 0.559999 8.2 0.512C7.96 0.607999 7.936 0.991999 8.152 1.112L8.656 1.184C9.232 1.256 9.184 1.472 8.824 2.144L7.864 3.896C7.456 4.664 7.096 5.24 6.712 5.888C6.352 5.264 6.016 4.616 5.632 3.896L4.744 2.192C4.36 1.448 4.432 1.304 4.96 1.184L5.296 1.112C5.536 0.991999 5.464 0.607999 5.272 0.512C4.504 0.559999 3.952 0.584 3.232 0.584C2.368 0.584 1.816 0.559999 1.024 0.512C0.832 0.584 0.784 0.968 0.952 1.112L1.576 1.232C2.2 1.352 2.44 1.568 2.944 2.528L4.696 5.768C5.296 6.872 5.368 7.064 5.368 7.808V8.72ZM24.3634 0.248C20.8834 0.248 18.4354 2.696 18.4354 5.888C18.4354 8.912 20.6434 11.336 24.3634 11.336C27.7474 11.336 30.1954 8.984 30.1954 5.744C30.1954 2.816 28.2274 0.248 24.3634 0.248ZM24.1954 0.943999C26.8354 0.943999 28.0594 3.536 28.0594 6.104C28.0594 9.392 26.3074 10.64 24.4834 10.64C21.6994 10.64 20.5714 7.976 20.5714 5.504C20.5714 2.12 22.4674 0.943999 24.1954 0.943999ZM39.4212 6.944C39.4212 8.504 39.7332 9.608 40.4532 10.328C41.1732 11.024 42.3252 11.336 43.8612 11.336C46.9092 11.336 48.3252 9.728 48.3252 6.656V4.28C48.3252 1.904 48.5172 1.256 49.1412 1.184L49.8612 1.112C50.0292 0.991999 50.0292 0.632 49.8372 0.512C49.0692 0.559999 48.5412 0.584 47.8452 0.584C47.1492 0.584 46.5972 0.559999 45.8292 0.512C45.6372 0.632 45.6132 0.968 45.7812 1.112L46.2852 1.184C47.3172 1.328 47.4612 1.88 47.4612 4.28V6.512C47.4612 8.888 46.5252 10.52 44.3652 10.52C42.0372 10.52 41.2452 8.888 41.2452 6.488V3.104C41.2452 1.448 41.3412 1.352 42.3732 1.184L42.8292 1.112C42.9972 0.991999 42.9732 0.584 42.7812 0.512C41.8452 0.559999 41.1012 0.584 40.3332 0.584C39.5652 0.584 38.8212 0.559999 38.0052 0.512C37.8132 0.584 37.7892 0.991999 37.9572 1.112L38.2932 1.184C39.3012 1.4 39.4212 1.448 39.4212 3.104V6.944ZM73.0165 6.656C74.3845 7.352 74.6965 8.144 74.6965 8.912C74.6965 10.016 73.9045 10.64 72.6805 10.64C71.0725 10.64 70.0165 8.936 69.8245 8.072C69.6565 7.856 69.2965 7.88 69.2005 8.12C69.2005 9.392 69.4885 10.256 69.7045 10.592C70.0405 10.832 71.0005 11.336 72.4645 11.336C74.8405 11.336 76.3765 10.16 76.3765 8.288C76.3765 6.68 75.2965 5.672 74.4325 5.24L72.9445 4.472C71.9845 3.968 71.3365 3.44 71.3365 2.576C71.3365 1.76 71.8645 0.943999 73.2805 0.943999C74.6965 0.943999 75.3205 2.168 75.5125 3.008C75.6325 3.176 76.0645 3.152 76.1365 2.96C76.1605 1.928 75.9925 1.016 75.8005 0.607999C74.9845 0.464 74.4085 0.248 73.5685 0.248C71.1445 0.248 69.8005 1.472 69.8005 3.224C69.8005 4.568 70.7845 5.504 71.9365 6.104L73.0165 6.656ZM89.4811 7.28C90.0331 7.28 90.1051 7.304 90.2971 7.856L90.8731 9.416C91.1611 10.16 91.1851 10.304 90.5611 10.4L90.0811 10.472C89.8651 10.568 89.8891 11 90.1291 11.072C90.7291 11.024 91.4251 11 92.2891 11C93.1051 11 93.6571 11.024 94.2811 11.072C94.5211 11.024 94.5691 10.592 94.3531 10.472L93.9691 10.4C93.1051 10.232 92.8891 9.92 92.6011 9.128L90.4411 3.392C89.8891 1.928 89.5051 0.68 89.4091 0.439999C89.3611 0.296 89.2171 0.248 89.0251 0.319999C88.9051 0.607999 88.4491 1.064 88.0171 1.232C87.9691 1.688 87.8011 2.264 87.3931 3.248L85.0891 8.768C84.6091 9.92 84.3451 10.184 83.6011 10.352L83.0491 10.472C82.8811 10.592 82.8811 10.976 83.0971 11.072C83.5291 11.048 84.1051 11 84.7771 11C85.4491 11 86.0731 11.024 86.6731 11.072C86.9131 11.024 86.9371 10.592 86.7451 10.472L86.0971 10.352C85.6411 10.256 85.5691 10.16 85.8331 9.392L86.3851 7.856C86.5771 7.304 86.6491 7.28 87.2011 7.28H89.4811ZM87.4411 6.512C86.9131 6.512 86.8651 6.464 87.1291 5.816L87.9931 3.68C88.2091 3.176 88.3051 2.96 88.3771 2.864H88.4251C88.4971 2.984 88.5931 3.176 88.7851 3.728L89.5291 5.768C89.7931 6.464 89.7211 6.512 89.0971 6.512H87.4411ZM104.626 8.72C104.626 10.136 104.53 10.28 103.498 10.4L102.898 10.472C102.73 10.592 102.754 11 102.946 11.072C104.026 11.024 104.77 11 105.538 11C106.282 11 107.074 11.024 108.13 11.072C108.322 11 108.346 10.592 108.178 10.472L107.578 10.4C106.546 10.28 106.45 10.136 106.45 8.72V7.424C106.45 6.728 106.498 6.488 107.362 5.12L108.85 2.72C109.594 1.52 109.714 1.376 110.458 1.232L111.034 1.112C111.226 0.991999 111.178 0.584 110.986 0.512C110.314 0.559999 109.81 0.584 109.282 0.584C108.73 0.584 108.178 0.559999 107.458 0.512C107.218 0.607999 107.194 0.991999 107.41 1.112L107.914 1.184C108.49 1.256 108.442 1.472 108.082 2.144L107.122 3.896C106.714 4.664 106.354 5.24 105.97 5.888C105.61 5.264 105.274 4.616 104.89 3.896L104.002 2.192C103.618 1.448 103.69 1.304 104.218 1.184L104.554 1.112C104.794 0.991999 104.722 0.607999 104.53 0.512C103.762 0.559999 103.21 0.584 102.49 0.584C101.626 0.584 101.074 0.559999 100.282 0.512C100.09 0.584 100.042 0.968 100.21 1.112L100.834 1.232C101.458 1.352 101.698 1.568 102.202 2.528L103.954 5.768C104.554 6.872 104.626 7.064 104.626 7.808V8.72ZM131.301 8.48C131.301 10.136 131.205 10.232 130.173 10.4L129.717 10.472C129.549 10.592 129.573 11 129.765 11.072C130.701 11.024 131.445 11 132.213 11C132.957 11 133.749 11.024 134.661 11.072C134.853 11 134.877 10.592 134.709 10.472L134.253 10.4C133.221 10.232 133.125 10.136 133.125 8.48V3.104C133.125 1.448 133.221 1.352 134.253 1.184L134.709 1.112C134.877 0.991999 134.853 0.584 134.661 0.512C133.725 0.559999 132.981 0.584 132.213 0.584C131.445 0.584 130.701 0.559999 129.765 0.512C129.573 0.584 129.549 0.991999 129.717 1.112L130.173 1.184C131.205 1.352 131.301 1.448 131.301 3.104V8.48ZM158.4 8.48C158.4 10.136 158.304 10.28 157.272 10.4L156.624 10.472C156.456 10.592 156.48 11 156.672 11.072C157.68 11.024 158.544 11 159.312 11C160.056 11 160.968 11.024 161.952 11.072C162.144 11 162.168 10.592 162 10.472L161.352 10.4C160.32 10.28 160.224 10.136 160.224 8.48V1.904C160.224 1.28 160.296 1.28 160.752 1.28H161.568C163.008 1.28 163.632 1.472 163.8 3.032C163.896 3.224 164.304 3.2 164.4 3.008C164.352 2.096 164.448 0.823999 164.64 0.2C164.568 0.0799997 164.376 0.0319996 164.208 0.128C164.016 0.559999 163.848 0.584 162.96 0.584H156.288C155.328 0.584 154.992 0.607999 154.968 0.128C154.872 0.0319996 154.632 0.0319996 154.536 0.128C154.416 0.727999 154.152 1.928 153.888 2.96C153.984 3.152 154.248 3.224 154.488 3.08C155.064 1.424 155.688 1.28 157.152 1.28H157.896C158.376 1.28 158.4 1.28 158.4 1.904V8.48ZM177.067 7.28C177.619 7.28 177.691 7.304 177.883 7.856L178.459 9.416C178.747 10.16 178.771 10.304 178.147 10.4L177.667 10.472C177.451 10.568 177.475 11 177.715 11.072C178.315 11.024 179.011 11 179.875 11C180.691 11 181.243 11.024 181.867 11.072C182.107 11.024 182.155 10.592 181.939 10.472L181.555 10.4C180.691 10.232 180.475 9.92 180.187 9.128L178.027 3.392C177.475 1.928 177.091 0.68 176.995 0.439999C176.947 0.296 176.803 0.248 176.611 0.319999C176.491 0.607999 176.035 1.064 175.603 1.232C175.555 1.688 175.387 2.264 174.979 3.248L172.675 8.768C172.195 9.92 171.931 10.184 171.187 10.352L170.635 10.472C170.467 10.592 170.467 10.976 170.683 11.072C171.115 11.048 171.691 11 172.363 11C173.035 11 173.659 11.024 174.259 11.072C174.499 11.024 174.523 10.592 174.331 10.472L173.683 10.352C173.227 10.256 173.155 10.16 173.419 9.392L173.971 7.856C174.163 7.304 174.235 7.28 174.787 7.28H177.067ZM175.027 6.512C174.499 6.512 174.451 6.464 174.715 5.816L175.579 3.68C175.795 3.176 175.891 2.96 175.963 2.864H176.011C176.083 2.984 176.179 3.176 176.371 3.728L177.115 5.768C177.379 6.464 177.307 6.512 176.683 6.512H175.027ZM190.364 8.48C190.364 10.136 190.268 10.232 189.236 10.4L188.78 10.472C188.612 10.592 188.636 11 188.828 11.072C189.764 11.024 190.508 11 191.276 11H193.244C194.468 11 195.74 11.024 197.252 11.072C197.516 10.616 197.852 9.416 197.972 8.408C197.9 8.192 197.516 8.144 197.348 8.312C196.652 10.232 195.764 10.304 194.3 10.304C193.052 10.304 192.668 10.136 192.452 9.92C192.236 9.68 192.188 9.008 192.188 8.264V3.104C192.188 1.448 192.308 1.424 193.316 1.184L193.628 1.112C193.796 0.991999 193.772 0.584 193.58 0.512C192.788 0.559999 192.044 0.584 191.276 0.584C190.508 0.584 189.764 0.559999 188.828 0.512C188.636 0.584 188.612 0.991999 188.78 1.112L189.236 1.184C190.268 1.352 190.364 1.448 190.364 3.104V8.48ZM206.489 8.48C206.489 10.136 206.369 10.16 205.361 10.4L205.073 10.472C204.905 10.592 204.929 11 205.121 11.072C205.889 11.024 206.633 11 207.401 11C208.145 11 208.937 11.024 209.849 11.072C210.041 11 210.065 10.592 209.897 10.472L209.441 10.4C208.409 10.232 208.313 10.136 208.313 8.48V6.8C208.313 6.128 208.313 5.888 208.721 5.888C209.177 5.888 209.873 6.92 210.065 7.16L212.225 9.776C212.585 10.208 212.489 10.352 211.937 10.424L211.601 10.472C211.433 10.616 211.457 10.976 211.697 11.072C212.489 11 213.257 11 214.049 11C215.105 11 215.657 11.024 216.401 11.072C216.593 10.976 216.641 10.616 216.449 10.472L216.113 10.448C215.057 10.376 214.697 10.04 213.833 9.008L210.833 5.408C210.473 4.976 210.449 4.904 210.929 4.424L212.033 3.368C213.089 2.36 213.665 1.88 214.265 1.568C214.721 1.328 215.465 1.208 215.897 1.112C216.113 0.991999 216.065 0.584 215.849 0.512C215.057 0.559999 214.505 0.584 213.833 0.584C213.065 0.584 212.369 0.559999 211.697 0.512C211.457 0.559999 211.433 1.016 211.649 1.112L212.177 1.232C212.537 1.304 212.489 1.64 211.985 2.216C211.793 2.432 209.897 4.568 209.081 5.144C208.913 5.264 208.553 5.36 208.433 5.288C208.313 5.216 208.313 4.928 208.313 4.448V3.104C208.313 1.448 208.409 1.328 209.345 1.184L209.825 1.112C210.041 0.991999 210.017 0.584 209.801 0.512C208.913 0.559999 208.169 0.584 207.401 0.584C206.633 0.584 205.889 0.559999 205.049 0.512C204.857 0.584 204.833 0.991999 205.001 1.112L205.361 1.184C206.393 1.4 206.489 1.448 206.489 3.104V8.48ZM238.884 6.656C240.252 7.352 240.564 8.144 240.564 8.912C240.564 10.016 239.772 10.64 238.548 10.64C236.94 10.64 235.884 8.936 235.692 8.072C235.524 7.856 235.164 7.88 235.068 8.12C235.068 9.392 235.356 10.256 235.572 10.592C235.908 10.832 236.868 11.336 238.332 11.336C240.708 11.336 242.244 10.16 242.244 8.288C242.244 6.68 241.164 5.672 240.3 5.24L238.812 4.472C237.852 3.968 237.204 3.44 237.204 2.576C237.204 1.76 237.732 0.943999 239.148 0.943999C240.564 0.943999 241.188 2.168 241.38 3.008C241.5 3.176 241.932 3.152 242.004 2.96C242.028 1.928 241.86 1.016 241.668 0.607999C240.852 0.464 240.276 0.248 239.436 0.248C237.012 0.248 235.668 1.472 235.668 3.224C235.668 4.568 236.652 5.504 237.804 6.104L238.884 6.656ZM255.996 0.248C252.516 0.248 250.068 2.696 250.068 5.888C250.068 8.912 252.276 11.336 255.996 11.336C259.38 11.336 261.828 8.984 261.828 5.744C261.828 2.816 259.86 0.248 255.996 0.248ZM255.828 0.943999C258.468 0.943999 259.692 3.536 259.692 6.104C259.692 9.392 257.94 10.64 256.116 10.64C253.332 10.64 252.204 7.976 252.204 5.504C252.204 2.12 254.1 0.943999 255.828 0.943999ZM286.942 7.28C287.494 7.28 287.566 7.304 287.758 7.856L288.334 9.416C288.622 10.16 288.646 10.304 288.022 10.4L287.542 10.472C287.326 10.568 287.35 11 287.59 11.072C288.19 11.024 288.886 11 289.75 11C290.566 11 291.118 11.024 291.742 11.072C291.982 11.024 292.03 10.592 291.814 10.472L291.43 10.4C290.566 10.232 290.35 9.92 290.062 9.128L287.902 3.392C287.35 1.928 286.966 0.68 286.87 0.439999C286.822 0.296 286.678 0.248 286.486 0.319999C286.366 0.607999 285.91 1.064 285.478 1.232C285.43 1.688 285.262 2.264 284.854 3.248L282.55 8.768C282.07 9.92 281.806 10.184 281.062 10.352L280.51 10.472C280.342 10.592 280.342 10.976 280.558 11.072C280.99 11.048 281.566 11 282.238 11C282.91 11 283.534 11.024 284.134 11.072C284.374 11.024 284.398 10.592 284.206 10.472L283.558 10.352C283.102 10.256 283.03 10.16 283.294 9.392L283.846 7.856C284.038 7.304 284.11 7.28 284.662 7.28H286.942ZM284.902 6.512C284.374 6.512 284.326 6.464 284.59 5.816L285.454 3.68C285.67 3.176 285.766 2.96 285.838 2.864H285.886C285.958 2.984 286.054 3.176 286.246 3.728L286.99 5.768C287.254 6.464 287.182 6.512 286.558 6.512H284.902ZM300.239 8.48C300.239 10.136 300.143 10.232 299.111 10.4L298.655 10.472C298.487 10.592 298.511 11 298.703 11.072C299.639 11.024 300.383 11 301.151 11H303.119C304.343 11 305.615 11.024 307.127 11.072C307.391 10.616 307.727 9.416 307.847 8.408C307.775 8.192 307.391 8.144 307.223 8.312C306.527 10.232 305.639 10.304 304.175 10.304C302.927 10.304 302.543 10.136 302.327 9.92C302.111 9.68 302.063 9.008 302.063 8.264V3.104C302.063 1.448 302.183 1.424 303.191 1.184L303.503 1.112C303.671 0.991999 303.647 0.584 303.455 0.512C302.663 0.559999 301.919 0.584 301.151 0.584C300.383 0.584 299.639 0.559999 298.703 0.512C298.511 0.584 298.487 0.991999 298.655 1.112L299.111 1.184C300.143 1.352 300.239 1.448 300.239 3.104V8.48ZM316.364 8.48C316.364 10.136 316.268 10.232 315.236 10.4L314.78 10.472C314.612 10.592 314.636 11 314.828 11.072C315.764 11.024 316.508 11 317.276 11H319.244C320.468 11 321.74 11.024 323.252 11.072C323.516 10.616 323.852 9.416 323.972 8.408C323.9 8.192 323.516 8.144 323.348 8.312C322.652 10.232 321.764 10.304 320.3 10.304C319.052 10.304 318.668 10.136 318.452 9.92C318.236 9.68 318.188 9.008 318.188 8.264V3.104C318.188 1.448 318.308 1.424 319.316 1.184L319.628 1.112C319.796 0.991999 319.772 0.584 319.58 0.512C318.788 0.559999 318.044 0.584 317.276 0.584C316.508 0.584 315.764 0.559999 314.828 0.512C314.636 0.584 314.612 0.991999 314.78 1.112L315.236 1.184C316.268 1.352 316.364 1.448 316.364 3.104V8.48ZM346.721 8.48C346.721 10.136 346.625 10.28 345.593 10.4L344.945 10.472C344.777 10.592 344.801 11 344.993 11.072C346.001 11.024 346.865 11 347.633 11C348.377 11 349.289 11.024 350.273 11.072C350.465 11 350.489 10.592 350.321 10.472L349.673 10.4C348.641 10.28 348.545 10.136 348.545 8.48V1.904C348.545 1.28 348.617 1.28 349.073 1.28H349.889C351.329 1.28 351.953 1.472 352.121 3.032C352.217 3.224 352.625 3.2 352.721 3.008C352.673 2.096 352.769 0.823999 352.961 0.2C352.889 0.0799997 352.697 0.0319996 352.529 0.128C352.337 0.559999 352.169 0.584 351.281 0.584H344.609C343.649 0.584 343.313 0.607999 343.289 0.128C343.193 0.0319996 342.953 0.0319996 342.857 0.128C342.737 0.727999 342.473 1.928 342.209 2.96C342.305 3.152 342.569 3.224 342.809 3.08C343.385 1.424 344.009 1.28 345.473 1.28H346.217C346.697 1.28 346.721 1.28 346.721 1.904V8.48ZM364.403 5.192C363.635 5.192 363.539 5.192 363.539 4.568V3.104C363.539 1.448 363.659 1.376 364.667 1.184L365.027 1.112C365.195 0.991999 365.171 0.584 364.979 0.512C364.139 0.559999 363.395 0.584 362.627 0.584C361.859 0.584 361.115 0.559999 360.083 0.512C359.891 0.584 359.867 0.991999 360.035 1.112L360.587 1.184C361.619 1.328 361.715 1.448 361.715 3.104V8.48C361.715 10.136 361.595 10.136 360.587 10.4L360.323 10.472C360.155 10.592 360.179 11 360.371 11.072C361.115 11.024 361.859 11 362.627 11C363.371 11 364.163 11.024 365.267 11.072C365.459 11 365.483 10.592 365.315 10.472L364.667 10.4C363.635 10.28 363.539 10.136 363.539 8.48V6.584C363.539 5.984 363.587 5.96 364.403 5.96H368.627C369.443 5.96 369.491 5.984 369.491 6.584V8.48C369.491 10.136 369.395 10.232 368.363 10.4L367.907 10.472C367.739 10.592 367.763 11 367.955 11.072C368.891 11.024 369.635 11 370.403 11C371.147 11 371.939 11.024 372.947 11.072C373.139 11 373.163 10.592 372.995 10.472L372.443 10.4C371.411 10.256 371.315 10.136 371.315 8.48V3.104C371.315 1.448 371.411 1.352 372.443 1.184L372.899 1.112C373.067 0.991999 373.043 0.584 372.851 0.512C371.915 0.559999 371.171 0.584 370.403 0.584C369.635 0.584 368.891 0.559999 367.955 0.512C367.763 0.584 367.739 0.991999 367.907 1.112L368.363 1.184C369.395 1.352 369.491 1.448 369.491 3.104V4.568C369.491 5.192 369.395 5.192 368.627 5.192H364.403ZM382.364 8.48C382.364 10.136 382.268 10.28 381.236 10.4L380.588 10.472C380.42 10.592 380.444 11 380.636 11.072C381.788 11.024 382.532 11 383.3 11H385.412C386.708 11 387.98 11.024 389.492 11.072C389.756 10.616 390.092 9.416 390.212 8.408C390.14 8.192 389.756 8.144 389.588 8.312C388.892 10.232 388.004 10.304 386.468 10.304C385.1 10.304 384.668 10.208 384.452 9.968C384.236 9.704 384.188 8.96 384.188 8.24V6.512C384.188 6.032 384.188 5.96 384.644 5.96H385.772C387.044 5.96 387.164 6.152 387.356 6.872L387.476 7.328C387.596 7.496 387.956 7.472 388.076 7.28C388.028 6.584 388.028 6.152 388.028 5.552C388.028 5 388.028 4.568 388.076 3.872C387.956 3.68 387.596 3.656 387.476 3.824L387.356 4.28C387.164 5 387.044 5.192 385.772 5.192H384.644C384.188 5.192 384.188 5.144 384.188 4.712V2.048C384.188 1.304 384.212 1.28 385.052 1.28H386.108C386.684 1.28 387.764 1.28 388.148 1.856C388.292 2.072 388.436 2.384 388.58 3.008C388.724 3.176 389.108 3.152 389.204 2.96L388.94 0.512C388.724 0.559999 387.764 0.584 386.708 0.584H383.3C382.508 0.584 381.764 0.559999 381.068 0.512C380.876 0.607999 380.852 1.016 381.02 1.112L381.356 1.184C382.268 1.376 382.364 1.448 382.364 3.104V8.48ZM413.354 8.48C413.354 10.136 413.258 10.28 412.226 10.4L411.578 10.472C411.41 10.592 411.434 11 411.626 11.072C412.634 11.024 413.498 11 414.266 11C415.01 11 415.922 11.024 416.906 11.072C417.098 11 417.122 10.592 416.954 10.472L416.306 10.4C415.274 10.28 415.178 10.136 415.178 8.48V1.904C415.178 1.28 415.25 1.28 415.706 1.28H416.522C417.962 1.28 418.586 1.472 418.754 3.032C418.85 3.224 419.258 3.2 419.354 3.008C419.306 2.096 419.402 0.823999 419.594 0.2C419.522 0.0799997 419.33 0.0319996 419.162 0.128C418.97 0.559999 418.802 0.584 417.914 0.584H411.242C410.282 0.584 409.946 0.607999 409.922 0.128C409.826 0.0319996 409.586 0.0319996 409.49 0.128C409.37 0.727999 409.106 1.928 408.842 2.96C408.938 3.152 409.202 3.224 409.442 3.08C410.018 1.424 410.642 1.28 412.106 1.28H412.85C413.33 1.28 413.354 1.28 413.354 1.904V8.48ZM428.348 8.48C428.348 10.136 428.252 10.232 427.22 10.4L426.764 10.472C426.596 10.592 426.62 11 426.812 11.072C427.748 11.024 428.492 11 429.26 11C430.004 11 430.796 11.024 431.708 11.072C431.9 11 431.924 10.592 431.756 10.472L431.3 10.4C430.268 10.232 430.172 10.136 430.172 8.48V3.104C430.172 1.448 430.268 1.352 431.3 1.184L431.756 1.112C431.924 0.991999 431.9 0.584 431.708 0.512C430.772 0.559999 430.028 0.584 429.26 0.584C428.492 0.584 427.748 0.559999 426.812 0.512C426.62 0.584 426.596 0.991999 426.764 1.112L427.22 1.184C428.252 1.352 428.348 1.448 428.348 3.104V8.48ZM444.479 3.92C443.663 2.336 443.231 1.568 443.231 0.512C442.463 0.584 441.959 0.584 441.479 0.584C440.831 0.584 440.279 0.559999 439.631 0.512C439.415 0.607999 439.439 0.991999 439.583 1.112L440.159 1.184C440.975 1.28 441.239 1.64 441.239 2.408C441.239 4.04 441.095 7.904 440.903 9.2C440.783 10.04 440.711 10.28 439.919 10.4L439.415 10.472C439.223 10.592 439.247 10.976 439.415 11.072C440.159 11.024 440.879 11 441.407 11C442.055 11 442.751 11.024 443.375 11.072C443.543 10.976 443.567 10.568 443.399 10.472L442.607 10.4C441.935 10.328 441.911 9.8 441.911 8.576C441.911 7.4 441.935 6.392 441.959 5.432C441.983 4.76 442.007 3.152 442.103 3.032C442.295 3.104 442.799 4.376 443.063 4.904L444.623 7.928C445.031 8.72 445.775 10.256 446.039 11.12C446.183 11.216 446.375 11.216 446.495 11.12C446.759 10.352 448.007 7.856 448.199 7.496L449.663 4.736C449.999 4.112 450.623 2.912 450.695 2.912C450.767 2.96 450.767 3.32 450.767 3.608V9.152C450.767 10.112 450.767 10.304 449.999 10.4L449.471 10.472C449.303 10.568 449.327 10.952 449.495 11.072C450.167 11.024 450.911 11 451.607 11C452.207 11 453.143 11.024 454.007 11.072C454.199 10.976 454.199 10.568 454.031 10.472L453.335 10.4C452.591 10.328 452.591 9.752 452.543 9.224C452.423 7.784 452.423 5.744 452.423 3.2C452.423 1.784 452.471 1.328 453.575 1.184L454.103 1.112C454.271 0.991999 454.247 0.584 454.031 0.512C453.335 0.559999 452.639 0.584 452.063 0.584C451.679 0.584 451.199 0.559999 450.671 0.512C450.287 1.64 450.167 2.048 449.015 4.256L447.815 6.56C447.359 7.424 446.927 8.192 446.831 8.24C446.735 8.168 446.135 7.088 445.967 6.776L444.479 3.92ZM463.411 8.48C463.411 10.136 463.315 10.28 462.283 10.4L461.635 10.472C461.467 10.592 461.491 11 461.683 11.072C462.835 11.024 463.579 11 464.347 11H466.459C467.755 11 469.027 11.024 470.539 11.072C470.803 10.616 471.139 9.416 471.259 8.408C471.187 8.192 470.803 8.144 470.635 8.312C469.939 10.232 469.051 10.304 467.515 10.304C466.147 10.304 465.715 10.208 465.499 9.968C465.283 9.704 465.235 8.96 465.235 8.24V6.512C465.235 6.032 465.235 5.96 465.691 5.96H466.819C468.091 5.96 468.211 6.152 468.403 6.872L468.523 7.328C468.643 7.496 469.003 7.472 469.123 7.28C469.075 6.584 469.075 6.152 469.075 5.552C469.075 5 469.075 4.568 469.123 3.872C469.003 3.68 468.643 3.656 468.523 3.824L468.403 4.28C468.211 5 468.091 5.192 466.819 5.192H465.691C465.235 5.192 465.235 5.144 465.235 4.712V2.048C465.235 1.304 465.259 1.28 466.099 1.28H467.155C467.731 1.28 468.811 1.28 469.195 1.856C469.339 2.072 469.483 2.384 469.627 3.008C469.771 3.176 470.155 3.152 470.251 2.96L469.987 0.512C469.771 0.559999 468.811 0.584 467.755 0.584H464.347C463.555 0.584 462.811 0.559999 462.115 0.512C461.923 0.607999 461.899 1.016 462.067 1.112L462.403 1.184C463.315 1.376 463.411 1.448 463.411 3.104V8.48Z" fill="black"/>
</svg>
